<?xml version="1.0" encoding="UTF-8" standalone="no"?>
<svg
   width="11970"
   height="11971"
   xml:space="preserve"
   overflow="hidden"
   version="1.1"
   id="svg13"
   sodipodi:docname="favicon.svg"
   inkscape:export-filename="favicon.png"
   inkscape:export-xdpi="4.8099999"
   inkscape:export-ydpi="4.8099999"
   inkscape:version="1.3 (0e150ed6c4, 2023-07-21)"
   xmlns:inkscape="http://www.inkscape.org/namespaces/inkscape"
   xmlns:sodipodi="http://sodipodi.sourceforge.net/DTD/sodipodi-0.dtd"
   xmlns="http://www.w3.org/2000/svg"
   xmlns:svg="http://www.w3.org/2000/svg"><defs
   id="defs13" /><sodipodi:namedview
   id="namedview13"
   pagecolor="#ffffff"
   bordercolor="#000000"
   borderopacity="0.25"
   inkscape:showpageshadow="2"
   inkscape:pageopacity="0.0"
   inkscape:pagecheckerboard="0"
   inkscape:deskcolor="#d1d1d1"
   inkscape:zoom="0.067747055"
   inkscape:cx="5978.1196"
   inkscape:cy="5985.5"
   inkscape:window-width="1920"
   inkscape:window-height="1046"
   inkscape:window-x="-11"
   inkscape:window-y="-11"
   inkscape:window-maximized="1"
   inkscape:current-layer="svg13" />&#10;  <g
   transform="translate(7794 505)"
   id="g13">&#10;    <path
   d="M3634.42-263.729C3751.3 1451.91 4155.63 2966.51 3320.85 4255.33 2486.07 5544.07-33.4641 5472.47-1770.45 5486.27-1791.1 3038.11-1987.71 1562.06-1143.29 554.161-298.882-453.747 1460.04 467.415 2256.4 331.103 3052.65 194.792 3170.91 36.4326 3634.42-263.729Z"
   stroke="#000000"
   stroke-width="273.021"
   stroke-miterlimit="8"
   fill="#EB5455"
   fill-rule="evenodd"
   id="path1" />&#10;    <path
   d="M410.775 0.0198491C259.996 416.956 145.301 727.494 198.99 1205.01 252.68 1682.53 766.021 2330.82 732.907 2865.12 699.793 3399.41 322.886 3828.35 0.30748 4410.76 421.542 3992.51 956.065 3269.32 987.711 2731.34 1019.36 2193.35 532.493 1606.68 439.989 1153.89 347.486 701.107 412.653 374.387 410.775 0.0198491Z"
   stroke="#000000"
   stroke-width="45.5035"
   stroke-miterlimit="8"
   fill-rule="evenodd"
   transform="matrix(-0.602875 -0.797835 -0.797835 0.602875 3213.32 1306.65)"
   id="path2" />&#10;    <path
   d="M3935.3 10925.4C2222.63 11042.3 710.669 11446.6-575.866 10611.8-1862.4 9777.04-1791 7257.51-1804.7 5520.53 639.167 5499.87 2112.7 5303.27 3118.79 6147.68 4124.98 6992.09 3205.38 8751.02 3341.54 9547.37 3477.59 10343.6 3635.69 10461.9 3935.3 10925.4Z"
   stroke="#000000"
   stroke-width="273.021"
   stroke-miterlimit="8"
   fill="#EB5455"
   fill-rule="evenodd"
   id="path3" />&#10;    <path
   d="M410.785 0.245407C260.006 417.181 145.311 727.72 199 1205.24 252.689 1682.75 766.031 2331.05 732.918 2865.34 699.803 3399.64 322.896 3828.58 0.317585 4410.98 421.552 3992.74 956.075 3269.55 987.721 2731.56 1019.37 2193.57 532.503 1606.9 439.999 1154.12 347.496 701.333 412.663 374.612 410.785 0.245407Z"
   stroke="#000000"
   stroke-width="45.5035"
   stroke-miterlimit="8"
   fill-rule="evenodd"
   transform="matrix(0.797835 -0.602875 -0.602875 -0.797835 2367.91 10500)"
   id="path4" />&#10;    <path
   d="M-7243.81 11225.3C-7360.71 9512.9-7765.03 8001.21-6930.24 6714.89-6095.44 5428.58-3575.93 5499.97-1838.96 5486.27-1818.3 7929.71-1621.7 9402.99-2466.11 10408.9-3310.52 11414.9-5069.49 10495.5-5865.77 10631.6-6662.07 10767.6-6780.34 10925.7-7243.81 11225.3Z"
   stroke="#000000"
   stroke-width="273.021"
   stroke-miterlimit="8"
   fill="#EB5455"
   fill-rule="evenodd"
   id="path5" />&#10;    <path
   d="M410.56 0.255512C259.78 417.191 145.086 727.73 198.774 1205.25 252.464 1682.76 765.806 2331.06 732.692 2865.35 699.578 3399.65 322.671 3828.59 0.0923885 4410.99 421.327 3992.75 955.85 3269.56 987.496 2731.57 1019.14 2193.58 532.277 1606.91 439.774 1154.13 347.27 701.343 412.438 374.623 410.56 0.255512Z"
   stroke="#000000"
   stroke-width="45.5035"
   stroke-miterlimit="8"
   fill-rule="evenodd"
   transform="matrix(0.602875 0.797835 0.797835 -0.602875 -6825.44 9654.71)"
   id="path6" />&#10;    <path
   d="M-7553.7 37.5237C-5841.35-79.587-4329.64-484.629-3043.33 351.639-1757.01 1187.92-1828.4 3711.92-1814.7 5451.9-4258.18 5472.65-5731.41 5669.65-6737.37 4823.75-7743.35 3977.74-6823.96 2215.69-6960 1417.99-7096.06 620.296-7254.11 501.805-7553.7 37.5237Z"
   stroke="#000000"
   stroke-width="273.021"
   stroke-miterlimit="8"
   fill="#EB5455"
   fill-rule="evenodd"
   id="path7" />&#10;    <path
   d="M410.55 0.0299541C259.77 416.966 145.076 727.504 198.764 1205.02 252.454 1682.54 765.795 2330.83 732.682 2865.13 699.568 3399.42 322.661 3828.36 0.0822835 4410.77 421.316 3992.52 955.84 3269.33 987.486 2731.35 1019.13 2193.36 532.267 1606.69 439.764 1153.9 347.26 701.117 412.427 374.397 410.55 0.0299541Z"
   stroke="#000000"
   stroke-width="45.5035"
   stroke-miterlimit="8"
   fill-rule="evenodd"
   transform="matrix(-0.797835 0.602875 0.602875 0.797835 -5983.9 461.333)"
   id="path8" />&#10;    <path
   d="M-3065.7 5481.27C-3065.7 4787.64-2503.33 4225.27-1809.7 4225.27-1116.07 4225.27-553.702 4787.64-553.702 5481.27-553.702 6174.9-1116.07 6737.27-1809.7 6737.27-2503.33 6737.27-3065.7 6174.9-3065.7 5481.27Z"
   stroke="#000000"
   stroke-width="273.021"
   stroke-miterlimit="8"
   fill="#FFFFFF"
   fill-rule="evenodd"
   id="path9" />&#10;    <path
   d="M513.648 0C340.706 375.663 186.165 992.532 212.851 1477.82 239.538 1963.11 709.242 2379.8 673.767 2911.73 638.291 3443.66 253.482 4130.51 0 4669.41 299.219 4250.39 831.95 3397.31 860.924 2904.76 889.897 2412.21 436.118 1874.19 377.763 1393 319.407 911.808 449.002 344.157 513.648 0Z"
   fill="#FDD267"
   fill-rule="evenodd"
   transform="matrix(-0.605585 -0.79578 -0.79578 0.605585 3365.17 1293.86)"
   id="path10" />&#10;    <path
   d="M513.648 0C340.706 375.663 186.165 992.532 212.851 1477.82 239.538 1963.11 709.242 2379.8 673.767 2911.73 638.291 3443.66 253.482 4130.51 0 4669.41 299.219 4250.39 831.95 3397.31 860.924 2904.76 889.897 2412.21 436.118 1874.19 377.763 1393 319.407 911.808 449.002 344.157 513.648 0Z"
   fill="#FDD267"
   fill-rule="evenodd"
   transform="matrix(-0.79553 0.605915 0.605915 0.79553 -5999.31 308.661)"
   id="path11" />&#10;    <path
   d="M513.648 0C340.706 375.663 186.165 992.532 212.851 1477.82 239.538 1963.11 709.242 2379.8 673.767 2911.73 638.291 3443.66 253.482 4130.51 0 4669.41 299.219 4250.39 831.95 3397.31 860.924 2904.76 889.897 2412.21 436.118 1874.19 377.763 1393 319.407 911.808 449.002 344.157 513.648 0Z"
   fill="#FDD267"
   fill-rule="evenodd"
   transform="matrix(0.605585 0.79578 0.79578 -0.605585 -6978.65 9667.52)"
   id="path12" />&#10;    <path
   d="M513.648 0C340.706 375.663 186.165 992.532 212.851 1477.82 239.538 1963.11 709.242 2379.8 673.767 2911.73 638.291 3443.66 253.482 4130.51 0 4669.41 299.219 4250.39 831.95 3397.31 860.924 2904.76 889.897 2412.21 436.118 1874.19 377.763 1393 319.407 911.808 449.002 344.157 513.648 0Z"
   fill="#FDD267"
   fill-rule="evenodd"
   transform="matrix(0.79553 -0.605915 -0.605915 -0.79553 2379.73 10653.5)"
   id="path13" />&#10;  </g>&#10;</svg>
